<?xml version="1.0" encoding="utf-8"?>
<!-- Generator: Adobe Illustrator 27.0.0, SVG Export Plug-In . SVG Version: 6.00 Build 0)  -->
<svg version="1.1" id="Layer_1" xmlns="http://www.w3.org/2000/svg" xmlns:xlink="http://www.w3.org/1999/xlink" x="0px" y="0px"
	 viewBox="0 0 116.3 19" style="enable-background:new 0 0 116.3 19;" xml:space="preserve">
<style type="text/css">
	.st0{fill:#FAA540;}
</style>
<path class="st0" d="M0.2,7.9C0,7.7,0,7.5,0,7.3l0.1-0.2c0.1-0.2,0.2-0.3,0.4-0.3l6.4-0.5l2.4-5.9C9.5,0.1,9.7,0,9.9,0h0.3
	c0.2,0,0.4,0.1,0.5,0.3l2.5,5.9l6.4,0.5c0.2,0,0.4,0.2,0.4,0.3L20,7.3c0.1,0.2,0,0.4-0.1,0.5L15,12l1.5,6.2c0,0.2,0,0.4-0.2,0.5
	L16,18.9c-0.2,0.1-0.4,0.1-0.6,0L10,15.6l-5.5,3.3C4.4,19,4.2,19,4,18.9l-0.2-0.1c-0.2-0.1-0.2-0.3-0.2-0.5L5,12L0.2,7.9z M24.3,7.9
	c-0.2-0.1-0.2-0.3-0.2-0.5l0.1-0.2c0.1-0.2,0.2-0.3,0.4-0.3L31,6.2l2.4-5.9C33.5,0.1,33.7,0,34,0h0.3c0.2,0,0.4,0.1,0.5,0.3l2.5,5.9
	l6.4,0.5c0.2,0,0.4,0.2,0.4,0.3l0.1,0.2c0.1,0.2,0,0.4-0.1,0.5L39.1,12l1.5,6.2c0,0.2,0,0.4-0.2,0.5l-0.3,0.2
	c-0.2,0.1-0.4,0.1-0.6,0l-5.4-3.3l-5.5,3.3c-0.2,0.1-0.4,0.1-0.6,0l-0.2-0.1c-0.2-0.1-0.2-0.3-0.2-0.5l1.4-6.2L24.3,7.9z M48.4,7.9
	c-0.2-0.1-0.2-0.3-0.2-0.5l0.1-0.2c0.1-0.2,0.2-0.3,0.4-0.3l6.4-0.5l2.4-5.9C57.6,0.1,57.8,0,58.1,0h0.3c0.2,0,0.4,0.1,0.5,0.3
	l2.5,5.9l6.4,0.5c0.2,0,0.4,0.2,0.4,0.3l0.1,0.2c0.1,0.2,0,0.4-0.1,0.5L63.2,12l1.5,6.2c0,0.2,0,0.4-0.2,0.5l-0.3,0.2
	c-0.2,0.1-0.4,0.1-0.6,0l-5.4-3.3l-5.5,3.3c-0.2,0.1-0.4,0.1-0.6,0l-0.2-0.1c-0.2-0.1-0.2-0.3-0.2-0.5l1.4-6.2L48.4,7.9z M72.5,7.9
	c-0.2-0.1-0.2-0.3-0.2-0.5l0.1-0.2c0.1-0.2,0.2-0.3,0.4-0.3l6.4-0.5l2.4-5.9C81.7,0.1,81.9,0,82.1,0h0.3c0.2,0,0.4,0.1,0.5,0.3
	l2.5,5.9l6.4,0.5c0.2,0,0.4,0.2,0.4,0.3l0.1,0.2c0.1,0.2,0,0.4-0.1,0.5L87.3,12l1.5,6.2c0,0.2,0,0.4-0.2,0.5l-0.3,0.2
	c-0.2,0.1-0.4,0.1-0.6,0l-5.4-3.3l-5.5,3.3c-0.2,0.1-0.4,0.1-0.6,0L76,18.8c-0.2-0.1-0.2-0.3-0.2-0.5l1.4-6.2L72.5,7.9z M116.3,7.3
	l-0.1-0.2c-0.1-0.2-0.2-0.3-0.4-0.3l-6.4-0.5L107,0.3c-0.1-0.2-0.3-0.3-0.5-0.3h-0.1h-0.1c-0.2,0-0.4,0.1-0.5,0.3l-2.4,5.9l-6.4,0.5
	c-0.2,0-0.4,0.2-0.4,0.3l-0.1,0.2v0l0,0c0,0.1,0,0.2,0,0.3c0,0.1,0.1,0.2,0.2,0.2l4.8,4.1l-1.4,6.2v0l0,0c0,0.2,0,0.4,0.2,0.5
	l0.2,0.1c0.1,0.1,0.3,0.1,0.5,0c0,0,0.1,0,0.1,0l5.5-3.3l0,0l0,0l5.4,3.3c0.2,0.1,0.4,0.1,0.6,0l0.3-0.2c0.2-0.1,0.2-0.3,0.2-0.5
	l-1.5-6.2l4.8-4.1C116.3,7.7,116.4,7.5,116.3,7.3z"/>
</svg>
